<svg width="36" height="36" viewBox="0 0 36 36" fill="none" xmlns="http://www.w3.org/2000/svg">
<path fill-rule="evenodd" clip-rule="evenodd" d="M4.74278 0.693236C1.13901 1.48137 -0.768328 5.23639 0.291694 9.45622C2.01421 16.3133 6.65928 23.6858 13.0719 29.7404C15.2611 31.8074 17.6674 32.9733 19.7441 32.9733C19.8433 32.9733 20.0934 33.0951 20.3001 33.2439C23.2681 35.3821 26.8344 33.7553 25.9453 30.669C24.8671 26.9261 19.3456 25.2619 18.1779 28.328C18.0132 28.7607 18.0849 28.7524 17.4412 28.4132C12.6501 25.8886 13.5939 18.3844 18.8764 17.002C24.4818 15.5351 28.7695 21.8162 25.4662 26.6553C24.7497 27.7049 25.7012 28.4934 26.4655 27.4834C31.1435 21.3011 24.0295 12.795 17.0964 16.2808C11.383 19.1534 11.9154 28.466 17.8825 30.0307C17.9751 30.055 18.0674 30.196 18.1317 30.4116C18.1879 30.5999 18.3183 30.9214 18.4216 31.1259L18.6093 31.4979L18.3934 31.4478C10.0557 29.5139 9.61414 17.2961 17.7892 14.7307C26.208 12.0887 32.7894 22.2778 26.8945 28.8273C25.9855 29.8372 26.904 30.7153 27.8304 29.7222C32.7342 24.4659 30.6141 16.3989 23.568 13.5028C18.4724 11.4084 15.7232 9.21739 11.4487 3.84437C9.18198 0.99522 7.3335 0.126569 4.74278 0.693236ZM6.73996 1.90359C8.08615 2.09881 8.84533 2.63534 10.2007 4.34936C13.6624 8.72719 16.1884 11.1276 19.0123 12.723C19.509 13.0036 19.5716 13.1162 19.2309 13.1162C18.6186 13.1162 17.1502 13.5379 16.2228 13.9801C12.1129 15.9401 9.74903 20.677 10.7085 25.0304L10.82 25.5366L10.4333 25.1083C5.93357 20.1253 1.9986 12.6552 1.28097 7.73356C0.795301 4.40317 3.56673 1.44345 6.73996 1.90359ZM2.879 7.28471C2.45437 7.52634 2.44016 7.7577 2.7695 9.06975C3.09598 10.3705 3.29998 10.619 3.85267 10.3894C4.27823 10.2127 4.3308 9.91076 4.09007 9.02637C4.00868 8.72743 3.90159 8.28247 3.85205 8.03749C3.71436 7.35635 3.30697 7.04113 2.879 7.28471ZM4.41281 12.1427C3.82929 12.3955 3.8581 12.5683 4.81593 14.5601C7.10045 19.3108 9.20807 21.8034 9.20807 19.7544C9.20807 19.6414 8.87251 19.0386 8.40121 18.3048C7.21515 16.4584 6.24133 14.6779 5.54676 13.086C5.11871 12.1049 4.90687 11.9286 4.41281 12.1427ZM17.4009 19.3769C15.9069 19.8507 15.1428 21.5667 15.6094 23.3998C16.4153 26.5657 20.3216 25.9615 20.4537 22.6507C20.5445 20.374 19.1094 18.8351 17.4009 19.3769ZM23.6542 20.5609C21.8472 21.0478 20.3788 23.1774 20.8143 24.6796C21.4868 26.9989 24.7745 26.4489 26.1009 23.7952C27.057 21.8823 25.6504 20.0229 23.6542 20.5609ZM18.2695 20.5968C19.6337 21.1136 19.3885 24.2093 17.9833 24.2093C16.6038 24.2093 16.3117 21.2131 17.6339 20.6239C17.9217 20.4956 17.9944 20.4925 18.2695 20.5968ZM17.5591 21.3216C16.919 21.9634 17.1995 23.6288 17.9475 23.6288C18.5087 23.6288 18.764 22.6769 18.5372 21.4309C18.4869 21.1549 17.8017 21.0783 17.5591 21.3216ZM24.6947 21.8691C26.0396 22.4326 23.8997 25.2788 22.4992 24.7893C21.3771 24.397 22.4923 22.2031 24.0018 21.8329C24.3513 21.7472 24.4112 21.7504 24.6947 21.8691ZM23.5027 22.588C23.4141 22.7008 23.3417 22.8418 23.3417 22.9011C23.3417 22.9605 23.2456 23.0501 23.1281 23.1002C22.5524 23.3457 22.3705 23.8856 22.7448 24.2382C23.3761 24.8328 24.8957 23.6327 24.5768 22.7913C24.4049 22.3383 23.7899 22.2219 23.5027 22.588ZM32.6589 27.9962C29.1527 28.3802 26.5918 32.6895 28.674 34.7019C30.1001 36.0803 32.9205 35.5486 34.7391 33.5585C37.146 30.9245 35.9174 27.6392 32.6589 27.9962ZM21.7497 28.1991C23.6555 28.7934 25.0826 30.5827 24.7412 31.9496C24.1932 34.143 19.8192 32.398 19.297 29.7776C19.0216 28.3959 20.1181 27.6903 21.7497 28.1991ZM20.003 28.8844C19.1157 29.8316 21.3686 32.3503 23.1031 32.3503C24.1158 32.3503 24.1607 31.2167 23.1534 31.0783C22.1925 30.9462 21.0896 29.9492 21.0896 29.2126C21.0896 28.7337 20.3527 28.5112 20.003 28.8844ZM33.6623 29.3182C34.7123 29.561 35.018 30.5436 34.4206 31.7558C33.1499 34.3339 29.1839 35.1115 29.2103 32.7773C29.2314 30.9204 31.8365 28.8962 33.6623 29.3182ZM33.3983 29.9206C33.161 29.9684 32.8935 30.2534 32.8935 30.4585C32.8935 31.1952 31.7906 32.1922 30.8298 32.3242C30.326 32.3935 30.1402 32.5684 30.1402 32.9733C30.1402 34.3544 33.0522 33.2545 33.9001 31.5531C34.3595 30.6312 34.0978 29.7797 33.3983 29.9206Z" fill="#F11158"/>
</svg>
