<svg width="36" height="36" viewBox="0 0 36 36" fill="none" xmlns="http://www.w3.org/2000/svg">
<path fill-rule="evenodd" clip-rule="evenodd" d="M10.91 0.118404C9.37865 0.443118 8.13683 1.06272 6.97554 2.0816C5.696 3.20424 5.46658 3.93323 5.77075 5.90895C5.81025 6.16508 5.76207 6.31955 5.42947 7.00458C4.68153 8.54493 4.0446 10.5147 3.74204 12.2233L3.60505 12.9971L3.0627 13.0417C1.77102 13.148 0.803495 13.7435 0.255693 14.7694L0 15.2481V24.5337V33.8193L0.24655 34.2958C0.570391 34.9218 1.17758 35.4778 1.8613 35.7743L2.38175 36H13.2149H24.048L24.5673 35.7748C25.4408 35.3959 26.3913 34.3801 26.3913 33.8253C26.3913 33.6453 26.6541 33.5891 27.8895 33.5048C33.8944 33.0947 35.28 32.5174 35.9513 30.1456C36.1176 29.558 35.8222 21.8339 35.6032 21.0406C35.0181 18.9223 30.5936 19.2358 27.3248 21.6272L26.5834 22.1695L26.5432 18.8144C26.4963 14.9072 26.4422 14.6543 25.4832 13.8611C24.4526 13.0085 24.6855 13.0323 17.3537 13.0323H11.1143L11.0698 12.8388C10.5245 10.4659 10.5002 8.8152 11.0085 8.66775C11.4114 8.55091 11.9086 8.28268 12.4575 7.88622C13.0594 7.45134 13.245 7.44677 14.1487 7.84429C16.6995 8.96637 18.3804 6.81781 17.5164 3.53937C16.8997 1.19905 13.679 -0.468698 10.91 0.118404ZM12.9874 1.24773C15.1596 1.6283 16.4034 3.0058 16.4034 5.03104C16.4034 6.96357 15.9931 7.34997 14.5824 6.7462C13.3097 6.20144 12.7165 6.24133 11.744 6.93676C11.1138 7.38754 10.885 7.49875 10.3524 7.61335C9.32525 7.83437 9.09337 9.31627 9.64748 12.1178C9.72784 12.524 9.79407 12.896 9.79476 12.9443C9.79568 13.0128 9.25341 13.0323 7.33641 13.0323H4.87691L4.92492 12.7333C5.20628 10.9794 6.04012 8.4259 6.75081 7.14189C7.09862 6.51336 7.13519 6.24844 6.99036 5.40303C6.57333 2.96809 9.84954 0.698049 12.9874 1.24773ZM3.35704 16.4735C3.29243 20.5928 3.707 23.3853 5.15319 28.5722C5.84374 31.049 5.84136 31.0423 6.21361 31.5213C7.57758 33.2759 14.9907 34.2475 23.4984 33.7865C25.2254 33.6929 25.1783 33.6836 24.9029 34.0646C24.6252 34.4487 24.1566 34.7451 23.6774 34.8396C22.8916 34.9946 2.74754 34.903 2.42017 34.7431C1.9273 34.5022 1.68835 34.2967 1.45779 33.9157L1.22929 33.5379V24.5689C1.22929 15.6117 1.22952 15.5994 1.39025 15.2833C1.70687 14.6607 2.37745 14.2326 3.04065 14.2297L3.39223 14.2281L3.35704 16.4735ZM5.36908 16.2734C5.54987 23.177 6.43334 27.3968 7.88152 28.2742C9.67736 29.3624 11.6977 26.3388 10.4343 24.4539C9.88996 23.6418 9.80206 23.4701 9.61045 22.8454C9.10613 21.2012 8.84813 15.4826 9.22721 14.3512C9.26394 14.2416 10.1032 14.1503 10.1032 14.2558C10.1032 14.2711 10.3245 15.1812 10.595 16.2783C11.4609 19.7904 11.7602 21.2989 11.8648 22.677C11.9978 24.429 12.8786 24.749 14.4442 23.614C14.74 23.3996 15.345 23.0611 15.7887 22.8619C16.688 22.458 16.7816 22.3821 16.785 22.054C16.7945 21.1746 15.5244 21.4384 13.6426 22.7068C13.3862 22.8796 13.1765 22.9927 13.1765 22.9583C13.1765 22.106 12.6973 19.5708 11.9816 16.6363C11.6669 15.3459 11.4094 14.2762 11.4094 14.2591C11.4094 14.2421 14.1858 14.2281 17.5792 14.2281H23.7489L24.1483 14.4103C25.2319 14.9048 25.2389 14.9381 25.2389 19.6181V23.5058L25.0681 23.6152C24.6749 23.8674 24.2265 23.7124 23.7023 23.1432C22.4302 21.762 20.7507 21.0403 20.4085 21.728C20.2006 22.1458 20.347 22.3408 21.1402 22.703C21.6392 22.931 21.8908 23.1156 22.6006 23.7748C23.6064 24.7089 23.9194 24.8709 24.7185 24.8709H25.2389V25.9158V26.9606H20.2987H15.3586L15.2664 26.7271C14.8867 25.7659 13.3968 25.2317 12.3245 25.6723C11.2557 26.1115 10.7052 27.3684 11.165 28.3199L11.3239 28.6489L11.165 28.9779C10.5117 30.3301 11.83 31.9634 13.4343 31.7894C14.2204 31.7042 15.0319 31.1643 15.2664 30.5707L15.3586 30.3372H20.2987H25.2389V31.4207V32.5041L24.7971 32.5472C20.4466 32.9722 13.3564 32.683 10.0333 31.945C7.6929 31.4253 7.20664 31.124 6.81388 29.9503C5.13529 24.9343 4.23721 18.5612 4.67515 14.7733L4.73823 14.2281H5.02688H5.31553L5.36908 16.2734ZM7.92386 14.5974C7.47686 18.058 8.01805 23.087 8.98981 24.5024C9.69173 25.5247 9.72423 25.8129 9.24404 26.7559C8.0726 29.0563 6.65231 23.0415 6.64701 15.7581L6.64586 14.2281H7.30867H7.97149L7.92386 14.5974ZM34.1561 21.0351L34.3938 21.2296L34.6157 25.2984C34.855 29.6868 34.8532 29.758 34.4809 30.4345C33.9743 31.3553 33.166 31.8166 31.7648 31.9848C31.0592 32.0695 26.8441 32.4476 26.606 32.4476C26.5724 32.4476 26.545 30.5147 26.545 28.1522V23.8569L27.1404 23.3126C29.2899 21.3478 33.0473 20.128 34.1561 21.0351ZM18.0942 21.2973C17.6104 21.7688 18.2304 22.4866 18.8565 22.1798C18.9324 22.1426 19.038 22.016 19.0912 21.8984C19.3524 21.321 18.5601 20.8433 18.0942 21.2973ZM13.7168 26.786C13.9644 26.9032 14.1262 27.147 14.2039 27.52C14.2317 27.6535 14.3291 27.8356 14.4204 27.9245L14.5862 28.0862H19.9125H25.2389V28.6489V29.2117H19.9125H14.5862L14.4204 29.3733C14.3291 29.4622 14.2317 29.6443 14.2039 29.7778C14.0864 30.3421 13.76 30.6186 13.2113 30.6186C12.3903 30.6186 11.9504 29.6889 12.5159 29.1485C12.8135 28.8641 12.8428 28.5929 12.6078 28.2972C11.8521 27.3465 12.6383 26.2753 13.7168 26.786Z" fill="#F11158"/>
</svg>
