<svg width="36" height="36" viewBox="0 0 36 36" fill="none" xmlns="http://www.w3.org/2000/svg">
<path fill-rule="evenodd" clip-rule="evenodd" d="M21.15 0.152432C15.2587 1.40933 11.8865 9.45834 16.353 11.6024L16.798 11.816L16.799 12.2878C16.8027 14.0686 17.9122 16.1796 19.4296 17.2933L19.8 17.5651V18.5141V19.463L21.187 20.8512L22.574 22.2393L21.4899 23.5888L20.4058 24.9383L20.4029 30.3055L20.4 35.6725L20.5736 35.8356C20.8115 36.059 21.2218 36.054 21.437 35.8251L21.6 35.6515V30.5472V25.4428L22.8296 23.9159C23.6456 22.9024 24.4999 21.9511 25.3697 21.0874L26.6801 19.7859L28.7338 19.8223C32.6681 19.892 34.4608 21.2343 34.7657 24.3385C34.9027 25.7343 36.0643 25.5331 35.9804 24.1281C35.8409 21.7912 34.1999 19.6885 31.8962 18.8948L31.1625 18.642L29.0813 18.6168L27 18.5916V18.0811V17.5706L27.4201 17.2466C28.0195 16.7842 28.7307 15.9791 29.0705 15.3782C29.3367 14.9073 29.3791 14.8663 29.55 14.9136C32.1516 15.6325 34.1359 12.3897 32.2795 10.4531L31.9875 10.1484L32.1697 9.70744C33.0338 7.61567 31.2349 2.46594 30.1006 3.78432C29.8553 4.06941 29.8717 4.15834 30.3385 5.07773C31.4221 7.21157 31.4429 9.17145 30.3923 10.1395L30.0375 10.4663L30.0173 8.70745C29.9917 6.47335 30.1057 6.64319 28.5913 6.58403C27.9842 6.56026 27.1924 6.49779 26.8317 6.44523C26.0237 6.3275 25.7788 6.44126 25.7402 6.9519C25.697 7.52366 26.1702 7.71082 27.8438 7.78401L28.8 7.82585V9.44799V11.0701L27.8288 11.7988C26.9588 12.4517 26.838 12.5201 26.6685 12.4556C25.2376 11.9118 21.5634 11.9114 20.1332 12.455C19.9659 12.5186 19.8408 12.4477 18.9728 11.7973L18 11.0683L18.0019 9.38006L18.0038 7.69185L18.6581 7.4405C19.4709 7.12826 20.3388 6.63981 21.0815 6.07683L21.6503 5.64552L22.1315 5.95175C23.8292 7.03266 24.63 7.13914 24.63 6.28386C24.63 5.92101 24.5298 5.82458 23.744 5.43158C23.3692 5.24412 22.7833 4.89147 22.442 4.64792C21.639 4.07489 21.5083 4.07114 20.8958 4.6033C19.8537 5.50889 18.7628 6.14177 17.7 6.45738C16.7621 6.7358 16.8061 6.62857 16.7826 8.69725L16.7625 10.4663L16.3412 10.047C14.8397 8.5526 15.8812 4.74465 18.3188 2.81597C20.9704 0.718191 25.5026 0.630235 28.2359 2.62363C28.9632 3.154 29.6318 3.07759 29.6224 2.46504C29.6114 1.75111 27.5324 0.539428 25.6663 0.15918C24.6393 -0.0500276 22.1169 -0.0537766 21.15 0.152432ZM20.1745 8.09497C19.3132 8.37691 18.9499 8.98586 19.3841 9.41988C19.6115 9.6473 19.9656 9.66155 20.2295 9.45399C20.3344 9.37151 20.5014 9.30402 20.6006 9.30402C20.6998 9.30402 20.9133 9.37151 21.075 9.45399C21.6818 9.76353 22.2 9.55147 22.2 8.99359C22.2 8.41838 20.9205 7.85074 20.1745 8.09497ZM25.6125 8.12931C24.8978 8.36461 24.6 8.62189 24.6 9.00408C24.6 9.5517 25.1232 9.76098 25.725 9.45399C25.8867 9.37151 26.1002 9.30402 26.1994 9.30402C26.2986 9.30402 26.4656 9.37151 26.5705 9.45399C27.0063 9.79675 27.6 9.53175 27.6 8.99456C27.6 8.35644 26.4471 7.85449 25.6125 8.12931ZM20.5631 10.3774C20.1906 10.7738 20.4653 11.4036 21.0105 11.4036C21.3567 11.4036 21.6 11.1516 21.6 10.7932C21.6 10.2608 20.9264 9.99066 20.5631 10.3774ZM25.3631 10.3774C24.9906 10.7738 25.2653 11.4036 25.8105 11.4036C26.1567 11.4036 26.4 11.1516 26.4 10.7932C26.4 10.2608 25.7264 9.99066 25.3631 10.3774ZM31.4026 11.3474C32.2327 12.2586 31.5707 13.737 30.3244 13.755C29.8211 13.7623 29.8075 13.7433 29.9121 13.1754C29.9605 12.9131 30.0002 12.4999 30.0003 12.2573L30.0005 11.816L30.3191 11.6846C30.4942 11.6123 30.7388 11.4701 30.8625 11.3686C31.1426 11.1388 31.2102 11.1362 31.4026 11.3474ZM18.6847 13.1462L19.2 13.5391V14.2241C19.2 14.6009 19.2193 15.023 19.2428 15.1622L19.2855 15.4153L19.0892 15.1903C18.8511 14.9174 18.3386 13.8789 18.238 13.4657C18.028 12.6023 17.9987 12.6231 18.6847 13.1462ZM28.6746 12.997C28.5767 13.5083 28.2752 14.2814 27.9799 14.7785C27.6148 15.3929 27.4795 15.5116 27.5508 15.1551C27.5779 15.0198 27.6 14.6004 27.6 14.223V13.537L28.1063 13.1501C28.7088 12.6897 28.7348 12.6827 28.6746 12.997ZM24.9 13.3544C25.1681 13.3957 25.62 13.4846 25.9042 13.5519L26.4209 13.6744L26.3768 14.3199C26.0983 18.4051 20.7017 18.4051 20.4232 14.3199L20.3792 13.6744L20.8958 13.5506C22.0205 13.2812 23.8444 13.1918 24.9 13.3544ZM0.98955 16.9968C0.064875 17.4574 0 17.6969 0 20.6488V23.0751L0.17355 23.2381C0.4098 23.4599 0.82185 23.4566 1.0338 23.2309C1.1889 23.0658 1.19437 22.9907 1.2156 20.721C1.2411 17.9963 1.21687 18.0818 1.98307 18.0182L2.4 17.9837V21.1527V24.3217L2.1 24.6471C1.47435 25.3257 2.0922 26.2038 2.80238 25.6452L3 25.4899L3.19762 25.6452C3.9078 26.2038 4.52565 25.3257 3.9 24.6471L3.6 24.3217V21.162V18.0023H6.3036H9.00713L8.98485 18.4688L8.9625 18.9354L8.5296 19.1564C7.71105 19.5743 6.86858 19.4984 6.06023 18.9339C5.5143 18.5526 5.25353 18.5168 4.98413 18.7862C4.01805 19.752 6.84697 21.1032 8.5719 20.4999L9.00637 20.3479L8.9844 20.8414L8.9625 21.3348L8.5296 21.5559C7.71112 21.9738 6.86858 21.8979 6.06023 21.3334C5.5143 20.9522 5.25353 20.9163 4.98413 21.1857C4.01805 22.1515 6.84697 23.5027 8.5719 22.8994L9.00637 22.7474L8.9844 23.2409L8.9625 23.7343L8.5296 23.9554C7.71112 24.3733 6.86858 24.2974 6.06023 23.7329C5.5143 23.3517 5.25353 23.3158 4.98413 23.5852C4.54305 24.0262 4.94767 24.6416 6.0141 25.1518L6.5625 25.4141L6.225 25.5636C6.03938 25.646 5.71875 25.737 5.5125 25.766C5.0283 25.8339 4.8 26.0372 4.8 26.4006C4.8 27.4833 7.08495 26.9893 7.92128 25.7258C8.0694 25.5021 8.19938 25.4141 8.5539 25.298L9 25.1517V27.5758V29.9998H6.3H3.6V28.3632C3.6 26.5058 3.56723 26.4006 2.9895 26.4006C2.4357 26.4006 2.4 26.5208 2.4 28.383V30.0184L1.98307 29.9838C1.21687 29.9203 1.2411 30.0057 1.2156 27.2811C1.19077 24.6239 1.18545 24.6009 0.6 24.6009C-0.00780001 24.6009 -0.00885011 24.6061 0.0158249 27.4643L0.0375 29.9744L0.26445 30.3413C0.405 30.5684 0.631275 30.7947 0.85845 30.9352L1.22535 31.1621L3.61268 31.1838L6 31.2056V31.7951V32.3846L5.00438 32.4107C2.91735 32.4655 0.9099 34.7043 1.95278 35.8141L2.12617 35.9986H9.6H17.0738L17.2472 35.8141C18.7181 34.2488 13.7669 31.0658 12.1799 32.5564C11.5077 33.1879 12.0258 33.5789 13.5771 33.611C15.0744 33.6419 16.05 34.0833 16.05 34.7297C16.05 34.7714 13.4876 34.7988 9.6 34.7988C5.71245 34.7988 3.15 34.7714 3.15 34.7297C3.15 34.0833 4.1256 33.6419 5.6229 33.611C7.2708 33.577 7.2 33.6386 7.2 32.2377V31.2025L12.5872 31.1823L17.9743 31.1621L18.3415 30.9352C18.569 30.7945 18.7949 30.5687 18.9356 30.3412L19.1625 29.9741V24.001V18.028L18.9356 17.6609C18.7949 17.4334 18.569 17.2076 18.3414 17.0669L17.9743 16.84L9.67883 16.8203L1.3833 16.8006L0.98955 16.9968ZM15.6 21.162V24.3217L15.3 24.6471C14.6744 25.3257 15.2922 26.2038 16.0024 25.6452L16.2 25.4899L16.3976 25.6452C17.1078 26.2038 17.7257 25.3257 17.1 24.6471L16.8 24.3217V21.1527V17.9837L17.2169 18.0182C17.514 18.0429 17.6812 18.1 17.7982 18.2171L17.9625 18.3814V24.001V29.6207L17.7982 29.785C17.6812 29.902 17.514 29.9592 17.2169 29.9838L16.8 30.0184V28.383C16.8 26.5208 16.7643 26.4006 16.2105 26.4006C15.6328 26.4006 15.6 26.5058 15.6 28.3632V29.9998H12.9H10.2V27.5758V25.1517L10.6461 25.298C11.0006 25.4141 11.1306 25.5021 11.2787 25.7258C12.1151 26.9893 14.4 27.4833 14.4 26.4006C14.4 26.0372 14.1717 25.8339 13.6875 25.766C12.8935 25.6545 12.477 25.3476 12.9722 25.2389C13.5648 25.1088 14.4 24.3767 14.4 23.9875C14.4 23.3712 13.8243 23.2549 13.1398 23.7329C12.3314 24.2974 11.4889 24.3733 10.6704 23.9554L10.2375 23.7343L10.2154 23.2327L10.1933 22.7311L10.446 22.8367C11.5951 23.3167 13.1745 23.0262 14.0678 22.1704C14.9161 21.3578 14.1256 20.6449 13.1398 21.3334C12.3314 21.8979 11.4889 21.9738 10.6704 21.5559L10.2375 21.3348L10.2154 20.8332L10.1933 20.3316L10.446 20.4372C11.5951 20.9172 13.1745 20.6266 14.0678 19.7708C14.9161 18.9583 14.1256 18.2454 13.1398 18.9339C12.3314 19.4984 11.489 19.5743 10.6704 19.1564L10.2375 18.9354L10.2151 18.4688L10.1929 18.0023H12.8964H15.6V21.162ZM22.125 18.4954C23.0814 18.6998 24.5436 18.6061 25.4813 18.2804L25.8 18.1698V18.5556V18.9413L24.6 20.1393L23.4 21.3374L22.2 20.1393L21 18.9413V18.5556V18.1698L21.3188 18.2804C21.494 18.3413 21.8569 18.4381 22.125 18.4954ZM27.1631 22.3749C27.0188 22.5285 27 22.6323 27 23.2747V24.001H26.2631C25.1727 24.001 25.2 23.9545 25.2 25.8112C25.2 27.6471 25.172 27.6003 26.2736 27.6003H27V28.3371C27 29.4272 26.9535 29.3999 28.8105 29.3999C30.6468 29.3999 30.6 29.428 30.6 28.3266V27.6003H31.337C32.4273 27.6003 32.4 27.6468 32.4 25.7902C32.4 23.9542 32.4281 24.001 31.3264 24.001H30.6V23.2642C30.6 22.2282 27.9461 21.5416 27.1631 22.3749ZM29.4 24.1275C29.4 25.1408 29.4594 25.2008 30.4631 25.2008H31.2V25.8007V26.4006H30.4736C29.46 26.4006 29.4 26.4599 29.4 27.4634V28.2002H28.8H28.2V27.4739C28.2 26.4605 28.1406 26.4006 27.1369 26.4006H26.4V25.8007V25.2008H27.1264C28.14 25.2008 28.2 25.1414 28.2 24.138V23.4012H28.8H29.4V24.1275ZM22.9631 25.9742C22.5906 26.3706 22.8653 27.0004 23.4105 27.0004C23.7567 27.0004 24 26.7485 24 26.3901C24 25.8577 23.3264 25.5875 22.9631 25.9742ZM34.9631 26.5741L34.8 26.7477V31.2101V35.6725L34.9736 35.8356C35.2115 36.059 35.6218 36.054 35.837 35.8251L36 35.6515V31.1891V26.7267L35.8265 26.5636C35.5886 26.3402 35.1782 26.3451 34.9631 26.5741ZM7.32555 27.1961C6.7392 27.8994 6.64725 27.9776 6.27803 28.0873C6.06893 28.1493 5.7183 28.2002 5.49885 28.2002C4.88512 28.2002 4.58182 28.6057 4.83278 29.0909C5.29343 29.9814 7.6959 29.1736 8.28637 27.9296C8.60767 27.2525 7.79543 26.6324 7.32555 27.1961ZM10.9519 27.1485C9.98512 28.1151 13.0817 30.1502 14.1739 29.2659C14.6676 28.8663 14.3201 28.2002 13.6178 28.2002C12.9744 28.2002 12.5057 28.0205 12.1982 27.6561C11.6549 27.0121 11.64 27.0004 11.3652 27.0004C11.2012 27.0004 11.0435 27.0569 10.9519 27.1485ZM22.9631 28.3737C22.5906 28.7701 22.8653 29.3999 23.4105 29.3999C23.7567 29.3999 24 29.148 24 28.7896C24 28.2572 23.3264 27.987 22.9631 28.3737ZM22.9631 30.7732C22.5906 31.1697 22.8653 31.7995 23.4105 31.7995C23.7567 31.7995 24 31.5475 24 31.1891C24 30.6567 23.3264 30.3865 22.9631 30.7732ZM30.1631 30.7732C30.0028 30.9439 30 30.9868 30 33.3097V35.6725L30.1736 35.8356C30.4115 36.059 30.8218 36.054 31.037 35.8251C31.1972 35.6544 31.2 35.6115 31.2 33.2887V30.9258L31.0264 30.7627C30.7885 30.5393 30.3782 30.5443 30.1631 30.7732Z" fill="#F11158"/>
</svg>
