<svg width="34" height="36" viewBox="0 0 34 36" fill="none" xmlns="http://www.w3.org/2000/svg">
<path fill-rule="evenodd" clip-rule="evenodd" d="M15.9558 0.0213681C15.5437 0.0396004 15.161 0.0653591 15.1053 0.0786811C15.0496 0.0920031 14.8764 0.118245 14.7205 0.137C14.3943 0.176201 13.7918 0.279598 13.5256 0.342062C13.4254 0.365567 13.2613 0.401307 13.1611 0.421471C13.0609 0.441595 12.8786 0.487719 12.7561 0.523861C12.6335 0.560044 12.4786 0.599245 12.4118 0.610998C12.345 0.62275 12.2721 0.645007 12.2498 0.660462C12.2275 0.675917 12.0908 0.722001 11.946 0.762853C11.8012 0.803664 11.6654 0.852122 11.6442 0.870515C11.6231 0.888909 11.5727 0.903961 11.5323 0.903961C11.4919 0.903961 11.4272 0.920221 11.3885 0.940064C11.3498 0.959946 11.2362 1.0074 11.1359 1.04551C10.7797 1.18099 10.7403 1.19725 10.3056 1.38705C10.0172 1.51303 9.21169 1.91756 8.94874 2.06845C8.82622 2.13876 8.69406 2.2065 8.65509 2.21894C8.61613 2.23137 8.58421 2.25753 8.58421 2.27709C8.58421 2.29661 8.56558 2.31263 8.54286 2.31263C8.49369 2.31263 8.16484 2.52075 8.14544 2.56418C8.13798 2.58076 8.11388 2.59437 8.09185 2.59437C8.03583 2.59437 7.14079 3.23 6.6929 3.58784C5.80778 4.29508 4.84432 5.26006 4.11874 6.16607C3.77795 6.59157 3.19725 7.40651 3.19725 7.45923C3.19725 7.48048 3.1836 7.50391 3.16687 7.51131C3.12317 7.53059 2.91373 7.85736 2.91373 7.90623C2.91373 7.9288 2.8976 7.94732 2.87796 7.94732C2.85828 7.94732 2.83195 7.97903 2.81943 8.01775C2.80692 8.05647 2.73867 8.1878 2.66779 8.30955C2.52319 8.55788 2.12075 9.3506 1.98328 9.65785C1.80567 10.0549 1.77712 10.1232 1.63855 10.4829C1.6002 10.5825 1.55244 10.6955 1.53244 10.7339C1.51247 10.7723 1.4961 10.8315 1.4961 10.8653C1.4961 10.8991 1.47877 10.9582 1.45759 10.9966C1.43644 11.0351 1.37273 11.2205 1.31611 11.4086C1.25944 11.5968 1.19601 11.8051 1.17511 11.8715C1.15421 11.9379 1.10788 12.119 1.07211 12.274C1.03635 12.4289 0.990417 12.6191 0.970004 12.6966C0.85546 13.1315 0.744522 13.8401 0.636013 14.8297C0.571734 15.4157 0.572463 17.2458 0.637228 17.8281C0.728239 18.6471 0.833345 19.3314 0.930797 19.7399C0.954532 19.8395 0.989689 19.9935 1.00889 20.082C1.09002 20.4564 1.3765 21.4375 1.45548 21.6114C1.47557 21.6557 1.51854 21.7734 1.55099 21.873C1.58343 21.9727 1.63215 22.1085 1.65933 22.1749C1.68647 22.2413 1.7228 22.3319 1.74006 22.3761C1.78809 22.4996 1.90345 22.7611 1.98749 22.9371C2.02909 23.0243 2.06315 23.1194 2.06315 23.1484C2.06315 23.1775 2.08138 23.2012 2.10366 23.2012C2.12593 23.2012 2.14416 23.2214 2.14416 23.246C2.14416 23.3278 2.67358 24.3418 2.83847 24.5758C2.87986 24.6346 2.91373 24.6938 2.91373 24.7075C2.91373 24.7446 3.13171 25.0706 3.16687 25.0861C3.1836 25.0935 3.19725 25.1186 3.19725 25.1418C3.19725 25.3244 3.88686 26.1283 4.0733 26.163C4.72172 26.2839 4.96028 25.7237 4.52439 25.1038C3.9929 24.348 3.64826 23.7662 3.25428 22.9597C2.96103 22.3594 2.90348 22.2322 2.77196 21.8932C2.71182 21.7382 2.64976 21.5843 2.63401 21.5511C2.61829 21.5179 2.55405 21.3277 2.49132 21.1285C2.42853 20.9292 2.36227 20.73 2.34404 20.6857C2.31306 20.6106 2.18474 20.1274 2.09827 19.76C1.6729 17.9539 1.59493 15.7045 1.89454 13.8839C1.99413 13.2785 2.03358 13.0732 2.06469 12.9984C2.08308 12.9541 2.10641 12.8636 2.11649 12.7972C2.13978 12.6442 2.30022 12.0184 2.34348 11.9117C2.36146 11.8674 2.4255 11.6773 2.48581 11.4891C2.59423 11.1507 2.64644 11.0116 2.71595 10.8759C2.73563 10.8375 2.75171 10.7859 2.75171 10.7612C2.75171 10.7366 2.78124 10.6503 2.81729 10.5695C3.03949 10.0718 3.08469 9.97283 3.11883 9.90996C3.13969 9.87152 3.15675 9.81417 3.15675 9.78249C3.15675 9.75082 3.17064 9.7189 3.18757 9.7115C3.20454 9.70413 3.29596 9.54415 3.39073 9.35599C3.75304 8.63672 4.33649 7.71207 4.79714 7.12719C5.30278 6.48516 5.54714 6.21268 6.19285 5.57105C6.83855 4.92942 7.11276 4.68661 7.75887 4.18415C8.25099 3.80148 9.51085 2.99898 9.72843 2.92955C9.7674 2.91711 9.79932 2.89095 9.79932 2.87139C9.79932 2.85187 9.82184 2.83585 9.84938 2.83585C9.91301 2.83585 10.3416 2.62455 10.3596 2.5843C10.3671 2.56772 10.3992 2.55412 10.431 2.55412C10.4629 2.55412 10.5206 2.53693 10.5593 2.51592C10.721 2.4281 11.173 2.23214 11.3992 2.15176C11.5329 2.10427 11.6787 2.04965 11.7232 2.03042C11.7678 2.01118 11.9956 1.93318 12.2295 1.85711C12.597 1.73761 12.823 1.67543 13.6471 1.46715C13.7251 1.44747 13.9529 1.40404 14.1534 1.37067C14.3539 1.33731 14.5726 1.29927 14.6395 1.28615C15.5905 1.0994 17.6894 1.06793 18.9126 1.22208C19.4544 1.29034 19.6697 1.3287 20.5125 1.50691C20.6016 1.52575 20.7839 1.57135 20.9175 1.60818C21.0512 1.64504 21.22 1.68481 21.2925 1.69652C21.3652 1.70823 21.4346 1.73391 21.4468 1.75359C21.4591 1.77331 21.5047 1.78941 21.5483 1.78941C21.5918 1.78941 21.6591 1.80656 21.6978 1.82753C21.7365 1.84846 21.8683 1.89502 21.9909 1.931C22.2193 1.99806 22.2681 2.01609 22.5235 2.12741C22.6049 2.16287 22.6825 2.19189 22.6961 2.19189C22.7097 2.19189 22.8072 2.23021 22.9128 2.27705C23.0183 2.3239 23.1685 2.38934 23.2465 2.42247C23.5739 2.56148 24.4447 3.00924 24.7451 3.19301C24.8231 3.24071 24.9188 3.29061 24.9577 3.30397C24.9967 3.3173 25.0286 3.34422 25.0286 3.36378C25.0286 3.3833 25.0478 3.39932 25.0713 3.39932C25.1077 3.39932 25.8214 3.86269 25.8792 3.92387C25.8903 3.93566 25.9997 4.01656 26.1222 4.10366C26.2447 4.19075 26.3541 4.27262 26.3652 4.28558C26.3764 4.29854 26.4584 4.36253 26.5475 4.42777C26.6366 4.49301 26.7824 4.61283 26.8715 4.69401C26.9606 4.77523 27.0852 4.88189 27.1484 4.93107C27.3364 5.07745 28.1896 5.93191 28.4722 6.25691C28.6165 6.42293 28.7441 6.56783 28.7555 6.57889C28.7671 6.58996 28.8673 6.71336 28.9783 6.85314C29.0894 6.99292 29.213 7.14611 29.253 7.1936C29.2931 7.24105 29.4298 7.4346 29.5568 7.62369C29.6838 7.81273 29.8014 7.97348 29.8182 7.98084C29.8349 7.98825 29.8485 8.01369 29.8485 8.03743C29.8485 8.06118 29.8941 8.13994 29.9498 8.21251C30.0055 8.28508 30.0511 8.35644 30.0511 8.37109C30.0511 8.38574 30.0849 8.44583 30.1263 8.50459C30.283 8.72716 30.8339 9.76865 30.9535 10.0687C30.9907 10.1618 31.0598 10.3248 31.1072 10.4309C31.1963 10.6308 31.2098 10.6637 31.3262 10.9659C31.3646 11.0655 31.4123 11.1784 31.4323 11.2169C31.4523 11.2553 31.4687 11.3202 31.4687 11.3611C31.4687 11.402 31.4817 11.4484 31.4976 11.4642C31.5135 11.4801 31.5507 11.5782 31.5801 11.6822C31.6095 11.7863 31.6512 11.9303 31.6726 12.0023C32.3351 14.2218 32.4679 16.7976 32.0374 19.0758C31.9526 19.5243 31.8462 19.9917 31.758 20.3034C31.736 20.3809 31.6795 20.5801 31.6324 20.7461C31.5853 20.9121 31.5292 21.0794 31.5077 21.1178C31.4862 21.1563 31.4687 21.2154 31.4687 21.2492C31.4687 21.283 31.4523 21.3421 31.4323 21.3806C31.4123 21.419 31.3646 21.5319 31.3262 21.6316C31.2098 21.9337 31.1963 21.9667 31.1072 22.1666C31.0598 22.2726 30.9908 22.4356 30.9538 22.5288C30.8788 22.7176 30.4944 23.4638 30.2965 23.8049C30.2259 23.9267 30.1579 24.058 30.1453 24.0967C30.1328 24.1354 30.1065 24.1672 30.0868 24.1672C30.0672 24.1672 30.0511 24.1852 30.0511 24.2073C30.0511 24.2294 29.9873 24.3357 29.9093 24.4435C29.8313 24.5514 29.7675 24.6509 29.7675 24.6645C29.7675 24.6783 29.6608 24.8391 29.5303 25.022C29.3999 25.2048 29.2688 25.4217 29.2392 25.504C29.1842 25.6564 29.185 25.661 29.3204 25.9381C29.6188 26.5491 30.3958 26.0044 31.0835 24.7022C31.1278 24.6182 31.1734 24.5405 31.1847 24.5294C31.2198 24.4952 31.38 24.2031 31.56 23.8452C31.6545 23.657 31.7456 23.497 31.7623 23.4897C31.779 23.4823 31.7927 23.4606 31.7927 23.4415C31.7927 23.4224 31.8545 23.2745 31.93 23.1128C32.1228 22.7003 32.1977 22.5289 32.1977 22.5004C32.1977 22.4869 32.2324 22.3991 32.2748 22.3053C32.4 22.028 32.5623 21.5747 32.5623 21.5023C32.5623 21.4653 32.5783 21.4252 32.5979 21.4132C32.6176 21.4011 32.6434 21.3502 32.6553 21.3001C32.6673 21.25 32.7074 21.1093 32.7444 20.9876C32.7814 20.8658 32.8273 20.7028 32.8463 20.6254C32.8654 20.5479 32.9008 20.412 32.9251 20.3235C32.981 20.12 33.082 19.6656 33.1353 19.3777C33.224 18.8986 33.2481 18.7389 33.2903 18.3514C33.3144 18.13 33.3518 17.8263 33.3735 17.6764C33.4247 17.3217 33.4244 15.3131 33.3731 14.9613C33.3512 14.8114 33.3138 14.4986 33.29 14.2662C33.2662 14.0338 33.2288 13.744 33.2067 13.6223C33.1847 13.5005 33.1506 13.3103 33.131 13.1997C33.0657 12.8316 32.9541 12.3586 32.8462 11.9922C32.8043 11.8501 32.6889 11.4278 32.6564 11.2973C32.6438 11.2472 32.6176 11.1964 32.5979 11.1843C32.5783 11.1722 32.5623 11.1322 32.5623 11.0952C32.5623 11.0582 32.5152 10.9008 32.4578 10.7454C32.3505 10.4552 32.3353 10.4167 32.2194 10.1408C32.1822 10.0523 32.1366 9.94361 32.1181 9.89933C32.002 9.62146 31.9223 9.45029 31.7338 9.07425C31.6173 8.84182 31.4856 8.58826 31.4412 8.51079C31.3967 8.43331 31.3001 8.26125 31.2265 8.12843C30.8787 7.50133 30.0635 6.35995 29.4844 5.68934C29.2673 5.43787 28.6831 4.81113 28.624 4.76626C28.6077 4.75386 28.4527 4.60828 28.2797 4.44274C28.1067 4.27721 27.8466 4.04276 27.7018 3.92174C27.5571 3.80071 27.4295 3.69156 27.4183 3.67916C27.4072 3.66681 27.3252 3.60342 27.2361 3.5383C27.147 3.47318 27.0649 3.40979 27.0538 3.39743C27.0427 3.38507 26.9606 3.32168 26.8715 3.25656C26.7824 3.19144 26.7004 3.1289 26.6893 3.11759C26.6234 3.05066 26.3643 2.8761 26.3308 2.8761C26.3089 2.8761 26.2849 2.86081 26.2775 2.84209C26.2653 2.81138 25.6397 2.41365 25.0723 2.07585C24.9515 2.00393 24.5414 1.79468 24.161 1.61079C23.5771 1.32862 23.2743 1.20119 22.5782 0.944571C22.5336 0.92815 22.4516 0.896717 22.3959 0.874741C22.3402 0.852726 22.1853 0.802939 22.0516 0.76406C21.918 0.725181 21.7721 0.679419 21.7276 0.662394C21.4636 0.561413 20.5827 0.352889 19.9252 0.235728C18.8009 0.0353745 17.3786 -0.0414183 15.9558 0.0213681ZM14.7812 3.43647C14.3502 3.60137 13.9527 3.93112 13.8047 4.24646C13.7689 4.32289 13.7142 4.43796 13.6832 4.50215C13.5675 4.74211 13.6095 5.42994 13.7593 5.74834C13.8898 6.02573 13.8952 6.09592 13.786 6.09592C13.7535 6.09592 13.6954 6.11186 13.6567 6.1313C13.618 6.15078 13.4861 6.19883 13.3636 6.23808C13.1522 6.30585 13.0543 6.34506 12.6042 6.54255C12.22 6.71111 12.1211 6.76077 11.703 6.99498C11.4691 7.12598 11.2716 7.24898 11.2642 7.2683C11.2568 7.28758 11.2347 7.30335 11.2151 7.30335C11.072 7.30335 9.96234 8.18466 9.3927 8.7507C8.82306 9.31675 7.93616 10.4194 7.93616 10.5616C7.93616 10.5811 7.92028 10.603 7.90088 10.6104C7.83384 10.6358 7.34829 11.526 7.14711 11.9922C7.11847 12.0586 7.05569 12.2003 7.00769 12.3071C6.95966 12.4139 6.9096 12.5546 6.89647 12.6198C6.88335 12.6851 6.85674 12.7482 6.83734 12.7601C6.81794 12.7721 6.80206 12.8224 6.80206 12.872C6.80206 12.9216 6.78574 12.9794 6.76581 13.0004C6.74588 13.0214 6.68938 13.1926 6.64029 13.3808C6.45604 14.087 6.41266 14.2957 6.35591 14.7492C6.33238 14.9373 6.29556 15.192 6.27406 15.3151C6.22395 15.6023 6.22339 16.9189 6.27329 17.274C6.5095 18.9561 6.81915 20.046 7.12159 20.26C7.48434 20.5166 7.97666 20.2417 7.97666 19.7825C7.97666 19.651 7.95843 19.5322 7.93616 19.5185C7.91388 19.5049 7.89565 19.4583 7.89565 19.415C7.89565 19.3717 7.87872 19.3049 7.85807 19.2664C7.80075 19.1599 7.69314 18.7892 7.69314 18.6983C7.69314 18.654 7.67685 18.6077 7.65692 18.5955C7.637 18.5832 7.61128 18.5052 7.59973 18.422C7.58823 18.3389 7.54963 18.1079 7.51399 17.9086C7.2941 16.6805 7.36656 14.9903 7.68734 13.8637C7.83052 13.361 7.88804 13.1841 8.01461 12.8575C8.14058 12.5325 8.14657 12.5195 8.42175 11.9721C8.64387 11.5302 9.17548 10.6712 9.3221 10.5172C9.35066 10.4872 9.44033 10.3812 9.52138 10.2816C9.91443 9.79871 10.4143 9.29916 10.8919 8.91194C11.0139 8.81305 11.1388 8.70893 11.1695 8.68055C11.2002 8.65218 11.4285 8.49581 11.6768 8.33313C12.218 7.97851 12.9848 7.58465 13.5256 7.38345C13.6036 7.35443 13.6847 7.31551 13.7059 7.29691C13.727 7.27832 13.7826 7.26311 13.8294 7.26311C13.8762 7.26311 13.9318 7.24785 13.9529 7.22922C13.9741 7.21058 14.119 7.16381 14.2749 7.12534C14.4309 7.08682 14.5949 7.03989 14.6395 7.0211C14.684 7.00226 14.7752 6.97759 14.842 6.96624C14.9088 6.95489 15.1275 6.91726 15.328 6.88264C16.569 6.66837 18.4386 6.73292 19.3581 7.02178C19.4138 7.03929 19.5688 7.08408 19.7024 7.12131C19.9475 7.18965 20.1207 7.24499 20.2695 7.30259C20.314 7.31986 20.4325 7.36578 20.5327 7.40466C20.8822 7.54017 21.3439 7.75674 21.6466 7.92711C21.758 7.98978 21.9129 8.07615 21.9909 8.11901C22.0688 8.16188 22.1614 8.22229 22.1966 8.25324C22.2317 8.28423 22.2803 8.30955 22.3046 8.30955C22.3288 8.30955 22.3547 8.32376 22.3622 8.3411C22.3696 8.35849 22.5397 8.48901 22.7402 8.63125C23.3122 9.03699 23.9921 9.68477 24.4591 10.2689C24.5975 10.442 24.7384 10.6175 24.7722 10.6589C25.0203 10.9625 25.6127 11.9886 25.8151 12.4651C25.8504 12.5482 25.9078 12.6803 25.9428 12.7589C25.9778 12.8375 26.0423 13.0141 26.0862 13.1514C26.1301 13.2886 26.1821 13.4371 26.2018 13.4814C26.2215 13.5257 26.2475 13.6072 26.2595 13.6625C26.2716 13.7178 26.311 13.8808 26.347 14.0247C26.6368 15.1794 26.6938 16.8336 26.4817 17.9288C26.4161 18.2677 26.2428 18.9855 26.2049 19.0758C25.8662 19.8823 26.0035 20.343 26.5827 20.3435C26.9326 20.3437 27.1028 20.0949 27.3393 19.2368C27.5275 18.554 27.623 18.0736 27.6993 17.4257C27.7501 16.9945 27.7501 15.6227 27.6994 15.1718C27.6159 14.4302 27.4453 13.5926 27.2979 13.1997C27.2813 13.1554 27.2341 13.0105 27.193 12.8777C27.1519 12.7449 27.106 12.609 27.0908 12.5758C27.0756 12.5426 27.0451 12.4702 27.0229 12.4148C26.8736 12.0429 26.8042 11.8937 26.5557 11.41C25.8827 10.0999 24.7053 8.68112 23.6313 7.8861C23.5422 7.82018 23.434 7.73449 23.3907 7.69577C23.3476 7.65705 23.2987 7.62534 23.2822 7.62534C23.2657 7.62534 23.2282 7.60159 23.1987 7.57257C23.1693 7.54351 22.9994 7.42756 22.8212 7.31478C22.1197 6.87109 21.3812 6.50387 20.7353 6.27776C20.5682 6.21928 20.3998 6.15444 20.3612 6.13367C20.3225 6.11291 20.2552 6.09592 20.2117 6.09592C20.084 6.09592 20.0765 6.02782 20.1841 5.84494C20.7269 4.92262 20.213 3.75266 19.1122 3.4048C18.8496 3.3218 15.0075 3.3499 14.7812 3.43647ZM18.8231 4.50738C19.3384 4.65944 19.4057 5.35363 18.9245 5.55342C18.7298 5.63428 15.2521 5.64265 15.0997 5.56264C14.573 5.28618 14.6189 4.67397 15.1793 4.5003C15.4281 4.42318 18.5585 4.42926 18.8231 4.50738ZM14.4167 14.6457C13.5614 14.8347 13.0803 15.4319 13.0476 16.3449L13.0301 16.8339L12.5589 16.8563C12.0485 16.8806 11.8093 16.909 11.6827 16.9605C11.6382 16.9786 11.5197 17.0264 11.4195 17.0667C10.9482 17.2562 10.5686 17.6394 10.2067 18.291C10.0653 18.5456 9.90434 18.8353 9.84906 18.935C9.79373 19.0346 9.68028 19.2429 9.59692 19.3978C9.51352 19.5528 9.39776 19.761 9.3396 19.8607C9.28144 19.9603 9.19249 20.1233 9.14194 20.2229C9.09144 20.3225 9.04081 20.4131 9.02947 20.4241C9.01817 20.4352 8.95567 20.5439 8.89058 20.6656C8.82553 20.7874 8.73675 20.9504 8.69329 21.0278C8.64987 21.1053 8.54047 21.3045 8.45027 21.4706C8.36002 21.6366 8.2435 21.8449 8.19129 21.9334C8.13908 22.022 8.05576 22.1759 8.00615 22.2755C7.95653 22.3751 7.90679 22.4657 7.89565 22.4768C7.87131 22.5009 7.82663 22.5801 7.61885 22.9668C7.53173 23.1289 7.40929 23.3521 7.34683 23.4628C7.28433 23.5735 7.19543 23.7365 7.14925 23.8251C7.10308 23.9136 7.05577 23.9951 7.04411 24.0062C7.03244 24.0172 6.97594 24.1169 6.91859 24.2275C6.86124 24.3382 6.77569 24.4961 6.72854 24.5785C6.6814 24.6608 6.57564 24.851 6.49358 25.0011C6.41148 25.1512 6.28916 25.3736 6.22177 25.4953C6.15437 25.6171 6.06141 25.7891 6.0152 25.8777C5.96902 25.9662 5.92212 26.0477 5.91098 26.0588C5.89984 26.0699 5.85444 26.1514 5.81013 26.2399C5.76578 26.3285 5.72005 26.41 5.70855 26.421C5.697 26.4321 5.63438 26.5408 5.56929 26.6625C5.50425 26.7843 5.41842 26.9422 5.3786 27.0134C4.79021 28.0665 4.72832 28.2083 4.57878 28.8465C4.51835 29.1045 4.51843 31.1355 4.5789 31.3284C4.72415 31.7922 4.96855 32.1305 5.31817 32.3518C5.72147 32.6071 5.80794 32.6192 7.22483 32.6192H8.5032V33.8635C8.5032 35.4104 8.57486 35.6265 9.17892 35.901L9.39667 36L16.9798 35.9994C22.8929 35.9989 24.5945 35.9878 24.7064 35.949C24.9851 35.8525 25.2673 35.6102 25.3708 35.3783C25.504 35.08 25.5147 34.9627 25.5147 33.8005V32.6192H26.8286C27.6609 32.6192 28.1518 32.6044 28.1676 32.5789C28.1814 32.5568 28.2326 32.5385 28.2814 32.5383C28.501 32.5374 29.0556 32.1104 29.2004 31.8308C29.2338 31.7663 29.2714 31.7046 29.284 31.6935C29.417 31.5763 29.4495 31.2001 29.4337 29.955C29.4182 28.722 29.4066 28.6035 29.2761 28.3434C29.2568 28.305 29.241 28.2537 29.241 28.2294C29.241 28.1827 28.9901 27.6712 28.8426 27.4172C28.6655 27.1123 28.5794 26.959 28.4522 26.7229C28.1169 26.1003 27.9708 25.8342 27.9439 25.7972C27.9278 25.7751 27.851 25.6392 27.7732 25.4953C27.6955 25.3515 27.5935 25.1664 27.5467 25.084C27.4999 25.0017 27.3944 24.8115 27.3124 24.6614C27.0732 24.2242 26.9249 23.9559 26.8386 23.8049C26.7943 23.7275 26.7111 23.5735 26.6537 23.4628C26.5964 23.3521 26.5399 23.2525 26.5282 23.2415C26.5166 23.2304 26.4692 23.1489 26.423 23.0603C26.3306 22.8833 26.2278 22.6963 25.7366 21.8127C25.6751 21.702 25.5848 21.539 25.536 21.4504C25.4871 21.3619 25.4013 21.2079 25.3452 21.1083C25.2891 21.0087 25.1761 20.8044 25.094 20.6543C25.012 20.5042 24.9123 20.3231 24.8724 20.2518C24.8326 20.1806 24.7468 20.0227 24.6817 19.9009C24.6167 19.7792 24.5542 19.6705 24.5429 19.6594C24.5316 19.6483 24.4814 19.5578 24.4314 19.4582C24.3813 19.3586 24.3082 19.2227 24.2689 19.1563C24.2296 19.0899 24.1079 18.8726 23.9984 18.6733C23.5653 17.8846 23.4802 17.7511 23.2908 17.5621C23.0866 17.3582 22.6985 17.0954 22.5233 17.0423C22.4421 17.0176 22.3392 16.9825 22.2946 16.9643C22.1396 16.9008 21.6755 16.8421 21.328 16.8421H20.9783V16.5019C20.9783 15.5123 20.4446 14.825 19.5272 14.6333C19.2143 14.5679 14.7194 14.5788 14.4167 14.6457ZM3.18834 15.7931C2.93924 15.9168 2.8311 16.0748 2.83568 16.3082C2.8522 17.1536 5.07199 17.1451 5.07199 16.2997C5.07199 15.7822 3.86434 15.4575 3.18834 15.7931ZM29.2852 15.7708C28.802 15.9445 28.7913 16.6242 29.2686 16.8224C30.2406 17.226 31.5559 16.5839 31.0327 15.9612C30.8357 15.7267 29.7403 15.6074 29.2852 15.7708ZM19.6417 15.9164L19.8037 16.0774V16.4597V16.8421H16.9887H14.1737V16.498C14.1737 15.7147 14.0078 15.7582 16.9988 15.7567L19.4796 15.7554L19.6417 15.9164ZM22.1468 18.1144C22.3412 18.2146 22.5674 18.4252 22.6629 18.5948C22.7192 18.6948 22.9083 19.0386 23.1 19.389C23.2406 19.6461 23.2811 19.7183 23.4947 20.0921C23.5421 20.1751 23.6492 20.3698 23.7326 20.5247C23.8769 20.793 23.9655 20.9543 24.2186 21.4102C24.28 21.5209 24.3755 21.6929 24.4307 21.7925C24.4859 21.8922 24.5672 22.0371 24.6112 22.1145C24.699 22.2689 24.8545 22.55 25.0847 22.971C25.1667 23.1211 25.2665 23.3022 25.3063 23.3735C25.3461 23.4448 25.432 23.6027 25.497 23.7244C25.5621 23.8462 25.6245 23.9549 25.6358 23.9659C25.6472 23.977 25.6943 24.0585 25.7407 24.147C25.8526 24.3608 26.1155 24.8413 26.2032 24.9922C26.2418 25.0586 26.3402 25.2358 26.4219 25.3859C26.5037 25.536 26.6089 25.7262 26.6559 25.8085C26.7668 26.003 26.8864 26.2183 27.0631 26.5418C27.1418 26.6857 27.2511 26.8849 27.3061 26.9845C27.3612 27.0841 27.4755 27.2924 27.5602 27.4474C27.7986 27.8837 27.8016 27.8888 27.828 27.9102C27.8417 27.9213 27.8657 27.9709 27.8812 28.0204L27.9095 28.1104L18.9658 28.121L10.0221 28.1316L9.88984 28.2253C9.63386 28.4067 9.56298 28.7271 9.72224 28.983C9.8945 29.26 9.09253 29.2384 19.172 29.2384H28.3057L28.331 29.3722C28.4799 30.161 28.302 31.283 28.0045 31.4319C27.8014 31.5335 6.46778 31.5833 6.11698 31.483C5.69696 31.3629 5.65844 31.2389 5.6761 30.0635L5.68821 29.2585L6.92357 29.2384C8.23888 29.217 8.24062 29.2167 8.39761 29.008C8.49766 28.8751 8.50171 28.53 8.4049 28.3832C8.24423 28.1395 8.21097 28.1328 7.09498 28.118L6.07154 28.1043L6.22914 27.8161C6.31581 27.6576 6.43194 27.4463 6.48714 27.3467C6.54235 27.2471 6.64219 27.066 6.70906 26.9443C6.77593 26.8225 6.86913 26.6555 6.9162 26.5732C6.9633 26.4909 7.06865 26.3007 7.15039 26.1506C7.23208 26.0005 7.33063 25.8234 7.36931 25.7569C7.40799 25.6905 7.51739 25.4913 7.61245 25.3142C7.89707 24.784 7.91505 24.7516 7.93648 24.7306C7.94778 24.7196 8.01024 24.6109 8.07533 24.4891C8.14037 24.3674 8.22385 24.2134 8.26079 24.147C8.36651 23.957 8.55865 23.608 8.72128 23.3106C8.80334 23.1606 8.90893 22.9704 8.95587 22.888C9.00281 22.8057 9.08641 22.6569 9.14162 22.5573C9.19687 22.4576 9.29233 22.2856 9.35378 22.1749C9.58412 21.7599 9.69259 21.5629 9.85221 21.2693C9.94246 21.1033 10.059 20.895 10.1112 20.8065C10.1634 20.7179 10.2468 20.564 10.2964 20.4644C10.346 20.3648 10.3959 20.2742 10.4072 20.2631C10.4185 20.2521 10.4809 20.1434 10.546 20.0216C10.6111 19.8999 10.6969 19.742 10.7367 19.6707C10.7765 19.5994 10.8763 19.4183 10.9583 19.2682C11.0404 19.1181 11.1522 18.9138 11.2066 18.8142C11.4028 18.4557 11.602 18.2337 11.8286 18.121L12.0473 18.0122L16.9951 18.0107L21.9429 18.0093L22.1468 18.1144ZM24.3306 33.7562L24.3198 34.8932H16.9887H9.65755L9.64678 33.7562L9.63605 32.6192H16.9887H24.3413L24.3306 33.7562Z" fill="#F11158"/>
</svg>
