<svg width="36" height="36" viewBox="0 0 36 36" fill="none" xmlns="http://www.w3.org/2000/svg">
<path fill-rule="evenodd" clip-rule="evenodd" d="M2.23775 0.113586C1.22173 0.436687 0.498705 1.13667 0.169137 2.11617C-0.056379 2.78655 -0.056379 33.2371 0.169137 33.9075C0.450049 34.7423 0.969045 35.3254 1.78138 35.7187L2.30796 35.9736L17.8776 35.9918C33.4019 36.0099 33.4483 36.0096 33.8735 35.8662C34.8378 35.5409 35.5064 34.8718 35.8309 33.9075C36.0564 33.2371 36.0564 2.78655 35.8309 2.11617C35.5066 1.15249 34.8377 0.482734 33.8753 0.158087C33.3439 -0.0211094 2.79655 -0.0641333 2.23775 0.113586ZM33.7882 1.45422C34.1686 1.66519 34.3736 1.88382 34.614 2.3348C34.8193 2.71991 34.8193 33.3037 34.614 33.6888C34.3736 34.1398 34.1686 34.3584 33.7882 34.5694L33.4112 34.7785H18C3.08617 34.7785 2.58087 34.7743 2.34306 34.6472C1.89266 34.4064 1.67431 34.2011 1.46361 33.8203L1.2548 33.4428L1.23395 18.3282C1.20938 0.536655 1.12618 2.1097 2.12323 1.51313C2.63746 1.20549 1.24048 1.22947 18.1404 1.23769L33.4112 1.24514L33.7882 1.45422ZM3.46643 3.01629C2.96457 3.20618 2.87027 3.91839 3.31548 4.15699C3.55665 4.2862 12.0555 4.26082 12.3079 4.13006C12.6567 3.94946 12.7109 3.4537 12.4126 3.17306L12.2315 3.00266L7.90163 2.98958C5.52023 2.98234 3.52436 2.99443 3.46643 3.01629ZM3.20827 5.5862C2.99651 5.82177 2.96555 5.97243 3.07501 6.23472C3.23361 6.61476 3.28494 6.62313 5.45325 6.62313H7.44926L7.63441 6.43782C7.87965 6.19226 7.88499 5.83879 7.64711 5.60061L7.47482 5.42802H5.41267C3.36308 5.42802 3.3496 5.42901 3.20827 5.5862ZM12.7693 5.53762C12.6921 5.55541 12.4551 5.60405 12.2427 5.6456C10.1491 6.05545 8.35729 8.34001 6.2877 13.2381C2.27194 22.7423 2.84928 29.6336 7.69261 30.0063C9.13642 30.1175 10.1489 29.6591 12.3481 27.8986C13.5709 26.9197 14.0563 26.5973 14.7352 26.3131C15.5738 25.9622 15.5768 25.9622 15.6859 26.3528C16.1761 28.1059 19.6483 28.1512 20.2836 26.4127C20.3542 26.2194 20.4202 26.0501 20.4302 26.0365C20.5933 25.8135 22.5105 26.9232 23.687 27.9216C27.748 31.3677 31.493 30.4512 32.2948 25.8152C33.107 21.1182 29.1118 9.4613 25.7232 6.6412C24.1072 5.29642 22.6549 5.19476 19.7202 6.22122C18.2741 6.72696 17.6918 6.71642 16.1043 6.15577C14.6425 5.63949 13.3591 5.40166 12.7693 5.53762ZM14.2788 6.87347C14.5298 6.93266 15.1143 7.11819 15.5777 7.28571C17.6464 8.03357 18.2759 8.02485 20.6418 7.21569C24.1891 6.00245 25.7425 7.23531 28.4154 13.3856C28.8697 14.4308 28.8177 15.0387 28.2139 15.7451C27.829 16.1954 27.6208 16.2343 26.4891 16.0679C25.9216 15.9843 25.5926 16.6961 26.0262 17.0694C26.8438 17.7736 28.5594 17.4127 29.307 16.3794L29.4999 16.1128L29.684 16.6229C30.5314 18.9708 30.5116 19.6745 29.5736 20.5587C28.7401 21.3443 28.1605 21.238 26.259 19.9509C23.9109 18.3615 23.5672 18.1955 23.1671 18.4579C22.7302 18.7446 22.8515 19.2059 23.466 19.5936C23.7111 19.7482 24.5724 20.3117 25.38 20.8458C28.0595 22.6175 29.2573 22.744 30.523 21.3891C30.7021 21.1975 30.8485 21.0571 30.8485 21.077C30.8485 21.0969 30.8805 21.3249 30.9196 21.5836C31.1823 23.3203 31.1242 23.7353 30.5255 24.4022C29.4621 25.5864 27.6483 25.4694 26.1597 24.1204C24.6251 22.7297 22.6475 21.48 20.7558 20.7057L20.3872 20.5547V19.7525C20.3872 18.665 19.8824 18.202 19.36 18.8101L19.1936 19.0039V22.4481C19.1936 26.7234 19.2986 26.3776 18 26.3776C16.7014 26.3776 16.8064 26.7234 16.8064 22.4481V19.0039L16.64 18.8101C16.1188 18.2034 15.6128 18.6651 15.6128 19.7475V20.5449L15.3496 20.6607C12.9836 21.7013 11.435 22.6761 9.79499 24.1573C8.34859 25.4637 6.52073 25.5674 5.47452 24.4022C4.87577 23.7353 4.8177 23.3203 5.08036 21.5836C5.11947 21.3249 5.15148 21.0969 5.15148 21.077C5.15148 21.0571 5.29794 21.1975 5.47698 21.3891C6.71949 22.7192 8.01228 22.6028 10.4677 20.9395C12.9415 19.2639 15.0017 18.2111 16.135 18.0432C16.7766 17.9483 17.034 17.3897 16.6249 16.9801C15.9862 16.3405 12.9585 17.6996 9.15348 20.3342C7.86589 21.2257 7.15838 21.274 6.39505 20.5225C5.48428 19.6258 5.47459 18.8448 6.34534 16.5155L6.49735 16.109L6.69162 16.3775C7.61194 17.6496 8.99221 17.7603 10.7711 16.7047C11.864 16.0563 12.7876 15.5797 13.8966 15.0922C15.2753 14.4861 15.5206 14.1887 15.053 13.6902C14.6903 13.3037 12.7056 14.094 10.1715 15.6341C8.58871 16.5961 7.42167 16.1699 7.27746 14.5773C7.24003 14.1645 8.02028 12.1252 8.3554 11.7598C8.37077 11.7432 8.4855 11.8285 8.6104 11.9494C9.50741 12.8177 10.7123 12.8236 13.0151 11.9712C13.7294 11.7067 14.4858 11.4346 14.6958 11.3666C15.4049 11.1368 15.6108 10.6878 15.197 10.2733C14.8861 9.96212 14.4113 10.0769 11.9446 11.0594C9.81992 11.9057 8.54904 11.1155 9.50629 9.54348C10.9048 7.24677 12.3749 6.42432 14.2788 6.87347ZM18.4564 9.67565C14.5487 10.6547 15.8147 15.2489 20.7025 17.8269C21.8745 18.4451 25.564 15.6846 26.2033 13.7112C27.174 10.715 24.0005 8.36398 21.531 10.25L21.2999 10.4265L21.0681 10.2495C20.3608 9.70925 19.2747 9.47065 18.4564 9.67565ZM19.9746 11.0332C20.152 11.1117 20.4756 11.3378 20.6939 11.5358C20.9844 11.7993 21.1468 11.8957 21.2999 11.8957C21.453 11.8957 21.6153 11.7993 21.9059 11.5358C23.905 9.72317 26.2017 11.8107 24.6666 14.0449C24.1688 14.7693 23.1372 15.6447 21.8982 16.394L21.2999 16.7558L20.7016 16.394C19.2285 15.503 18.1354 14.5093 17.7138 13.6779C16.8172 11.9092 18.2275 10.2593 19.9746 11.0332ZM15.6128 23.34V24.7313L15.1389 24.8565C14.0335 25.1489 13.1687 25.6594 11.4597 27.029C8.1369 29.692 5.50247 29.2331 4.96992 25.8987L4.92161 25.596L5.25919 25.8241C6.66522 26.7743 8.8171 26.5933 10.2249 25.4066C10.44 25.2253 10.9267 24.8132 11.3065 24.4907C12.4268 23.5393 15.0641 21.9486 15.5209 21.9486C15.5936 21.9486 15.6128 22.2398 15.6128 23.34ZM21.3947 22.3581C22.8456 23.0545 24.0291 23.8587 25.337 25.0368C27.0356 26.5668 29.1315 26.8835 30.7028 25.8474L31.0778 25.6L31.0297 25.9007C30.4989 29.2244 27.8253 29.6889 24.5296 27.03C22.8478 25.6732 21.9598 25.1471 20.8611 24.8565L20.3872 24.7313V23.34C20.3872 22.3746 20.4108 21.9486 20.4644 21.9486C20.5069 21.9486 20.9255 22.1329 21.3947 22.3581ZM15.7852 28.378C15.2972 28.8665 15.8042 30.0587 16.666 30.4493C17.1327 30.6608 18.8673 30.6608 19.334 30.4493C20.1958 30.0587 20.7028 28.8665 20.2148 28.378C19.8583 28.021 19.1936 28.2845 19.1936 28.7828C19.1936 29.2431 18.8894 29.4005 18 29.4005C17.1106 29.4005 16.8064 29.2431 16.8064 28.7828C16.8064 28.2845 16.1417 28.021 15.7852 28.378ZM15.7584 31.4135C15.5504 31.6783 15.5648 32.1587 15.7947 32.6206C16.6807 34.4008 20.3872 33.841 20.3872 31.927C20.3872 31.0268 19.3129 30.9452 19.1708 31.8346C19.0371 32.6717 16.9629 32.6717 16.8292 31.8346C16.7363 31.2529 16.0856 30.997 15.7584 31.4135Z" fill="#F11158"/>
</svg>
