<svg width="36" height="30" viewBox="0 0 36 30" fill="none" xmlns="http://www.w3.org/2000/svg">
<path fill-rule="evenodd" clip-rule="evenodd" d="M3.83364 0.914479C2.95819 1.27744 2.27214 1.9877 1.94815 2.86643C1.78777 3.30125 1.78266 3.62225 1.78266 13.25V23.1849L2.05209 23.757C2.41235 24.5221 2.91205 25.0492 3.60056 25.3902L4.16241 25.6686L9.55491 25.6925L14.9473 25.7163L14.8959 25.9494C14.8676 26.0775 14.6825 26.7413 14.4847 27.4243L14.125 28.6662L7.26046 28.709C-0.320337 28.7563 0.0375395 28.728 0.0375395 29.279C0.0375395 29.8741 -1.67302 29.8224 17.9995 29.8224C37.6896 29.8224 35.9615 29.8753 35.9615 29.272C35.9615 28.6904 36.1726 28.709 29.5712 28.709C23.9858 28.709 23.6268 28.7 23.5857 28.5591C23.1917 27.2088 22.8518 25.9537 22.8518 25.8491C22.8518 25.7312 23.4142 25.7139 27.9382 25.6926L33.0246 25.6686L33.5342 25.4168C33.8145 25.2784 34.2191 24.9888 34.4333 24.7734C34.6473 24.5579 34.9352 24.151 35.0727 23.8689L35.323 23.3562V13.2072V3.05819L35.0727 2.54543C34.754 1.89229 34.1834 1.31821 33.5342 0.997555L33.0246 0.745757L18.6805 0.725888L4.33649 0.705933L3.83364 0.914479ZM33.0874 1.9752C33.5381 2.20053 33.955 2.63441 34.1631 3.09476C34.2873 3.36959 34.3039 4.27658 34.3251 11.9867L34.3487 20.5727H18.5962H2.84361L2.86642 11.9439L2.88932 3.31512L3.07473 2.96672C3.40392 2.34784 3.9312 1.96012 4.677 1.78823C4.77064 1.76665 11.1105 1.75458 18.7657 1.76126L32.684 1.7735L33.0874 1.9752ZM12.5841 3.14863C10.6754 3.8582 10.5866 6.56999 12.4449 7.40084L12.8067 7.56262V11.1517V14.7407L12.4373 14.9052C9.8206 16.0697 11.4014 20.0803 14.111 19.1515C14.4755 19.0265 14.5431 19.0265 14.9075 19.1515C17.6277 20.084 19.2081 16.0742 16.5812 14.9052L16.2118 14.7407V11.1578V7.5747L16.6761 7.34611C18.4768 6.45977 18.2912 3.7818 16.385 3.14477C15.8662 2.97143 15.197 3.00457 14.7743 3.22451C14.53 3.35161 14.488 3.35126 14.2364 3.2204C13.8585 3.02376 13.0183 2.98727 12.5841 3.14863ZM14.0924 4.36428L14.5093 4.5998L14.9439 4.35426C15.7306 3.90984 16.5571 4.17843 16.8142 4.96208C17.0602 5.71217 16.4631 6.52683 15.6674 6.52683C15.1057 6.52683 15.1052 6.53102 15.1052 11.1164C15.1052 15.9471 15.0585 15.6603 15.8713 15.8236C16.7062 15.9914 17.0926 16.7633 16.7244 17.5285C16.3994 18.2041 15.6842 18.3673 14.9261 17.9391L14.5093 17.7036L14.0924 17.9391C13.455 18.2991 12.9673 18.2707 12.5483 17.8492C11.7251 17.021 12.1846 16.0133 13.512 15.7357C13.9008 15.6544 13.9134 15.509 13.9134 11.1149C13.9134 6.53119 13.9129 6.52683 13.3511 6.52683C12.162 6.52683 11.7277 4.92183 12.7475 4.29628C13.1324 4.06015 13.5955 4.08362 14.0924 4.36428ZM28.6872 4.32925C28.5867 4.40316 28.527 4.55184 28.527 4.72827C28.527 5.22861 28.617 5.2478 30.8476 5.22228L32.8479 5.19932L32.9788 4.9638C33.0966 4.75191 33.0966 4.70463 32.9788 4.49275L32.8479 4.25722L30.8476 4.23427C29.2563 4.21611 28.8146 4.23547 28.6872 4.32925ZM19.6311 6.9912C18.3317 8.29858 18.3311 8.17482 19.6432 9.50592C20.6583 10.5356 20.8554 10.6534 21.1924 10.4311C21.5571 10.1908 21.4849 9.81159 20.979 9.3103C20.4006 8.73716 20.3705 8.75361 22.0005 8.75361C23.5475 8.75361 23.7882 8.68698 23.7882 8.25884C23.7882 7.7716 23.6381 7.72586 22.0382 7.72586C20.3674 7.72586 20.3999 7.74299 20.979 7.16917C21.4712 6.68142 21.5529 6.29841 21.2154 6.06066C20.8635 5.81272 20.7168 5.89887 19.6311 6.9912ZM29.8484 6.10194C29.2039 6.706 29.7487 7.0407 31.3765 7.0407C32.9791 7.0407 33.5077 6.71311 32.8969 6.0986C32.6348 5.83498 30.1301 5.83772 29.8484 6.10194ZM6.32627 9.84559C4.96601 11.2098 4.97129 11.0861 6.21943 12.3574C7.28855 13.4465 7.48648 13.5678 7.82733 13.3431C8.19202 13.1028 8.11983 12.7235 7.61391 12.2223C7.03487 11.6484 7.00235 11.6656 8.67316 11.6656C10.273 11.6656 10.4231 11.6198 10.4231 11.1326C10.4231 10.7044 10.1825 10.6378 8.63545 10.6378C7.00542 10.6378 7.03555 10.6543 7.61391 10.0811C8.10612 9.59336 8.18784 9.21036 7.85031 8.97261C7.50427 8.72869 7.35436 8.81459 6.32627 9.84559ZM30.4822 11.9287C29.8039 12.4655 30.3074 12.8646 31.6625 12.8646C32.8296 12.8646 33.0671 12.7715 33.0671 12.3141C33.0671 11.8877 32.7265 11.7512 31.6625 11.7512C30.8243 11.7512 30.6789 11.773 30.4822 11.9287ZM19.6913 13.3571C18.3311 14.7212 18.3364 14.5975 19.5845 15.8689C20.6536 16.9579 20.8515 17.0793 21.1924 16.8546C21.5571 16.6142 21.4849 16.235 20.979 15.7337C20.3999 15.1599 20.3674 15.177 22.0382 15.177C23.6381 15.177 23.7882 15.1313 23.7882 14.644C23.7882 14.2159 23.5475 14.1493 22.0005 14.1493C20.3705 14.1493 20.4006 14.1657 20.979 13.5926C21.4712 13.1048 21.5529 12.7218 21.2154 12.4841C20.8693 12.2402 20.7194 12.3261 19.6913 13.3571ZM30.4471 13.6831C29.769 14.1609 30.3918 14.6631 31.6625 14.6631C32.9393 14.6631 33.4476 14.2752 32.8969 13.721C32.6691 13.4919 30.7603 13.4623 30.4471 13.6831ZM28.6792 15.4729C28.4242 15.7293 28.418 15.858 28.6467 16.1504L28.8231 16.3761H30.7749C32.9171 16.3761 33.0671 16.3401 33.0671 15.8256C33.0671 15.3257 32.8082 15.2627 30.7533 15.2627H28.8881L28.6792 15.4729ZM25.1967 17.7758C25.0964 17.8495 25.0368 17.9983 25.0368 18.1746C25.0368 18.6818 25.0999 18.6937 27.6551 18.6684L29.9535 18.6457L30.0844 18.4101C30.2022 18.1982 30.2022 18.1511 30.0844 17.9391L29.9535 17.7036L27.6551 17.6808C25.8126 17.6625 25.3249 17.6814 25.1967 17.7758ZM30.9972 17.8146C30.5146 18.351 30.9302 18.7021 32.0103 18.6703C32.995 18.6414 33.2584 18.4425 32.9789 17.9391C32.8047 17.6251 31.2553 17.5277 30.9972 17.8146ZM34.317 22.3683C34.2355 23.4318 33.8902 24.0036 33.0671 24.4385L32.684 24.6408H18.5954C2.9724 24.6408 4.26822 24.6892 3.58039 24.0816C3.09473 23.6525 2.90873 23.2142 2.86395 22.3927L2.82539 21.6861H18.5974H34.3692L34.317 22.3683ZM18.406 22.4191C17.6779 22.8166 17.9789 23.9985 18.8082 23.9985C19.6491 23.9985 19.9396 22.8033 19.193 22.4149C18.8858 22.2551 18.7046 22.256 18.406 22.4191ZM21.7408 26.0326C21.7888 26.2093 21.9761 26.8741 22.1569 27.51L22.4857 28.6662L18.9099 28.6885C14.6884 28.7149 15.1767 28.9432 15.6731 27.1752L16.0841 25.7117L18.8687 25.7116L21.6534 25.7114L21.7408 26.0326Z" fill="#F11158"/>
</svg>
