<svg width="108" height="40" viewBox="0 0 108 40" fill="none" xmlns="http://www.w3.org/2000/svg">
<path fill-rule="evenodd" clip-rule="evenodd" d="M1.94952 0.126641C-0.10005 0.589244 -0.604743 3.07085 1.11366 4.23603L1.632 4.58755L12.242 4.66302C26.8023 4.76656 26.813 3.76709 12.1485 13.424C6.3195 17.2626 1.36164 20.5802 1.13128 20.7966C-1.08356 22.8757 0.127767 27.1599 3.25356 28.3032C4.18245 28.6429 26.4588 28.8334 28.0016 28.5149C30.2574 28.0491 30.7086 25.3362 28.6982 24.3255L28.0152 23.9822H17.6529C6.29632 23.9822 6.78863 24.022 6.79402 23.1036C6.79783 22.489 6.35792 22.8022 17.746 15.3027C29.5179 7.55033 29.3715 7.65688 29.7551 6.56112C30.8054 3.56047 28.8401 0.58215 25.514 0.133584C24.2257 -0.0401376 2.71632 -0.0464769 1.94952 0.126641ZM38.8403 0.135697C37.1697 0.408731 35.892 1.29832 35.0879 2.74816L34.6537 3.53104V14.3226V25.1141L35.0879 25.897C35.6558 26.9209 36.5104 27.7044 37.5907 28.1918L38.4639 28.5856H49.4182C59.5152 28.5856 60.4119 28.565 60.876 28.3237C62.505 27.4765 62.5809 25.4729 61.026 24.3688C60.5964 24.0638 60.3806 24.0561 50.2084 23.9822C41.9983 23.9224 39.7859 23.8658 39.6227 23.7109C39.1902 23.3003 39.265 18.0284 39.7135 17.3085C39.7248 17.2903 43.2116 17.2395 47.462 17.1953C56.0448 17.1059 55.535 17.1699 56.3937 16.0752C56.8581 15.4832 56.8332 14.2474 56.3436 13.5937C55.6312 12.6427 55.8157 12.6624 47.5931 12.6624H40.1164L39.7183 12.2838L39.3203 11.9054L39.3684 8.51779C39.4296 4.20117 37.8786 4.75267 50.2084 4.66302C60.3806 4.58906 60.5964 4.58137 61.026 4.27633C62.574 3.17726 62.4977 1.16489 60.876 0.321493C60.3263 0.0356295 40.4762 -0.131753 38.8403 0.135697ZM69.7393 0.128301C69.0336 0.285118 68.5722 0.600111 68.1823 1.19161L67.8342 1.71987L67.7859 13.7189C67.7246 28.9999 67.7907 29.3227 70.8071 28.5003C72.7652 27.9664 72.6687 28.7001 72.6728 14.3169L72.6763 2.01026L72.3191 1.34028C71.8103 0.385789 70.7733 -0.101265 69.7393 0.128301ZM82.2591 0.141432C80.4942 0.374167 78.8172 1.73511 78.3152 3.34192C77.9677 4.45458 77.9509 26.6398 78.2971 27.2725C79.2364 28.9885 81.6746 28.9885 82.6138 27.2725C82.7987 26.9345 82.8368 25.1742 82.8368 16.9714C82.8368 6.0303 82.7952 6.46981 83.8291 6.47645C84.4095 6.48023 84.2771 6.31133 91.8754 16.7416C99.84 27.6744 99.7986 27.6229 101.036 28.1616C103.491 29.2302 106.392 28.1812 107.585 25.7933L108 24.9632V13.2394C108 1.55716 107.999 1.51415 107.666 1.08943C106.879 0.0861916 105.365 -0.203747 104.353 0.455217C103.26 1.16701 103.317 0.575963 103.317 11.3425C103.317 21.6189 103.295 21.9437 102.598 22.11C101.829 22.2934 101.562 21.9675 94.1128 11.7562C85.2654 -0.372035 85.3705 -0.268949 82.2591 0.141432ZM31.2404 37.1131V39.9808H31.7167H32.193V37.1131V34.2455H31.7167H31.2404V37.1131ZM35.7093 34.4343C35.5856 34.5519 35.5269 35.4725 35.5269 37.2943V39.9808H36.0032H36.4794V38.1949C36.4794 35.8864 36.3789 35.8905 38.7124 38.104C41.4076 40.6606 41.3216 40.6932 41.3216 37.111V34.3209H40.8453H40.369L40.2896 36.1732L40.2102 38.0254L38.4639 36.3512C36.5787 34.5438 36.0101 34.1483 35.7093 34.4343ZM44.2632 34.4251C44.2738 34.8733 47.6922 39.9055 48.0172 39.9509C48.2906 39.9891 51.5904 35.3749 52.0146 34.3609C52.0455 34.287 51.7631 34.2477 51.3871 34.2737L50.7035 34.3209L49.4663 36.283C48.7859 37.3622 48.157 38.2451 48.0688 38.2451C47.9805 38.2451 47.3517 37.3622 46.6714 36.283C45.4634 34.3673 44.2397 33.4229 44.2632 34.4251ZM54.4191 37.1131V39.9808H56.9592H59.4994V39.4526V38.9243H57.4355H55.3717V37.1131V35.302H57.4355H59.4994V34.7737V34.2455H56.9592H54.4191V37.1131ZM63.3802 34.4067C62.669 34.6032 62.1665 35.18 62.1665 35.8C62.1665 37.0704 62.813 37.415 65.1964 37.415C67.3281 37.415 67.7548 37.5394 67.7548 38.1606C67.7548 38.8399 67.413 38.9243 64.6593 38.9243H62.1781L62.2279 39.4148L62.2776 39.9054L64.3415 39.9512C67.9039 40.0303 68.711 39.7098 68.7038 38.219C68.697 36.8336 68.0477 36.4617 65.5322 36.403C63.4602 36.3547 63.3096 36.3233 63.3096 35.9406C63.3096 35.372 63.6091 35.302 66.0402 35.302H68.3898V34.7737V34.2455L66.1275 34.259C64.8833 34.2666 63.6469 34.333 63.3802 34.4067ZM71.1946 34.3461C71.1363 34.4014 71.0887 34.6391 71.0887 34.8744V35.302H72.2794H73.4701V37.6509V40L73.9861 39.9526L74.502 39.9054L74.5458 37.6037L74.5897 35.302H75.6968H76.804V34.7737V34.2455H74.0523C72.5387 34.2455 71.2527 34.2907 71.1946 34.3461ZM55.8479 37.1131V37.5659H57.5149H59.1819V37.1131V36.6604H57.5149H55.8479V37.1131Z" fill="#F11158"/>
</svg>
